<svg xmlns="http://www.w3.org/2000/svg" viewBox="0 0 60 60" fill="none">
  <!-- Tooth Shape - Light Cyan Blue -->
  <path d="M30 5C20 5 12 12 12 22C12 32 8 38 10 46C11 50 14 52 18 52C21 52 23 50 24 46C25 42 28 40 30 40C32 40 35 42 36 46C37 50 39 52 42 52C46 52 49 50 50 46C52 38 48 32 48 22C48 12 40 5 30 5Z" fill="#4CC9F0"/>
  
  <!-- Cut-out for signal waves area -->
  <path d="M30 5C20 5 12 12 12 22C12 32 8 38 10 46C11 50 14 52 18 52C21 52 23 50 24 46C25 42 28 40 30 40C32 40 35 42 36 46C37 50 39 52 42 52C46 52 49 50 50 46C52 38 48 32 48 22C48 12 40 5 30 5Z" fill="#4CC9F0"/>
  
  <!-- Signal Waves - Dark Navy Blue, emanating from lower right of tooth -->
  <path d="M32 30C37 30 41 34 41 39" stroke="#1B3A7C" stroke-width="3.5" stroke-linecap="round" fill="none"/>
  <path d="M32 23C42 23 50 31 50 41" stroke="#1B3A7C" stroke-width="3.5" stroke-linecap="round" fill="none"/>
  <path d="M32 16C47 16 59 28 59 43" stroke="#1B3A7C" stroke-width="3.5" stroke-linecap="round" fill="none"/>
</svg>